<?xml version="1.0" encoding="UTF-8" standalone="no"?>
<svg width="20px" height="14px" viewBox="0 0 20 14" version="1.1" xmlns="http://www.w3.org/2000/svg" xmlns:xlink="http://www.w3.org/1999/xlink">
    <!-- Generator: Sketch 3.8.3 (29802) - http://www.bohemiancoding.com/sketch -->
    <title>right-arrow</title>
    <desc>Created with Sketch.</desc>
    <defs></defs>
    <g id="Page-1" stroke="none" stroke-width="1" fill="none" fill-rule="evenodd">
        <g id="Films" transform="translate(-903.000000, -590.000000)" fill="#FAFCFF">
            <g id="right-arrow" transform="translate(912.739130, 597.000000) scale(-1, 1) translate(-912.739130, -597.000000) translate(903.000000, 590.000000)">
                <g id="Capa_1">
                    <path d="M12.9073913,0.612956522 C12.6462609,0.342695652 12.2116522,0.342695652 11.9413913,0.612956522 C11.6802609,0.874086957 11.6802609,1.30869565 11.9413913,1.56921739 L16.8395652,6.4673913 L0.67626087,6.4673913 C0.299478261,6.468 0,6.76747826 0,7.14426087 C0,7.52104348 0.299478261,7.83026087 0.67626087,7.83026087 L16.8395652,7.83026087 L11.9413913,12.7193043 C11.6802609,12.9895652 11.6802609,13.4247826 11.9413913,13.6853043 C12.2116522,13.9555652 12.6468696,13.9555652 12.9073913,13.6853043 L18.9651304,7.62756522 C19.2353913,7.36643478 19.2353913,6.93182609 18.9651304,6.67130435 L12.9073913,0.612956522 L12.9073913,0.612956522 Z" id="Shape"></path>
                </g>
            </g>
        </g>
    </g>
</svg>